<?xml version="1.0" standalone="no"?><!DOCTYPE svg PUBLIC "-//W3C//DTD SVG 1.1//EN" "http://www.w3.org/Graphics/SVG/1.1/DTD/svg11.dtd"><svg t="1769966843065" class="icon" viewBox="0 0 1024 1024" version="1.1" xmlns="http://www.w3.org/2000/svg" p-id="11580" xmlns:xlink="http://www.w3.org/1999/xlink" width="200" height="200"><path d="M917.333333 149.333333v-8.533333-4.266667c0-2.133333 0-2.133333-2.133333-4.266666 0-2.133333-2.133333-2.133333-2.133333-4.266667s-2.133333-2.133333-2.133334-4.266667c-2.133333-2.133333-4.266667-4.266667-4.266666-6.4-2.133333-2.133333-4.266667-4.266667-6.4-4.266666 0 0-2.133333-2.133333-4.266667-2.133334s-2.133333-2.133333-4.266667-2.133333-2.133333 0-4.266666-2.133333c-2.133333 0-2.133333 0-4.266667-2.133334H704c-23.466667 0-42.666667 19.2-42.666667 42.666667s19.2 42.666667 42.666667 42.666667h68.266667l-183.466667 183.466666c-17.066667 17.066667-17.066667 42.666667 0 59.733334 8.533333 10.666667 19.2 14.933333 29.866667 14.933333 10.666667 0 21.333333-4.266667 29.866666-12.8l183.466667-183.466667V320c0 23.466667 19.2 42.666667 42.666667 42.666667s42.666667-19.2 42.666666-42.666667V149.333333zM106.666667 874.666667V887.466667c0 2.133333 0 2.133333 2.133333 4.266666 0 2.133333 2.133333 2.133333 2.133333 4.266667s2.133333 2.133333 2.133334 4.266667c2.133333 2.133333 4.266667 4.266667 4.266666 6.4 2.133333 2.133333 4.266667 4.266667 6.4 4.266666 0 0 2.133333 2.133333 4.266667 2.133334s2.133333 2.133333 4.266667 2.133333 2.133333 0 4.266666 2.133333H320c23.466667 0 42.666667-19.2 42.666667-42.666666s-19.2-42.666667-42.666667-42.666667h-68.266667l183.466667-183.466667c17.066667-17.066667 17.066667-42.666667 0-59.733333-17.066667-17.066667-42.666667-17.066667-59.733333 0L192 772.266667V704c0-23.466667-19.2-42.666667-42.666667-42.666667s-42.666667 19.2-42.666666 42.666667v170.666667zM883.2 917.333333h4.266667c2.133333 0 2.133333 0 4.266666-2.133333 2.133333 0 2.133333-2.133333 4.266667-2.133333s2.133333-2.133333 4.266667-2.133334c2.133333-2.133333 4.266667-4.266667 6.4-4.266666 2.133333-2.133333 4.266667-4.266667 4.266666-6.4 0-2.133333 2.133333-2.133333 2.133334-4.266667s2.133333-2.133333 2.133333-4.266667 0-2.133333 2.133333-4.266666v-4.266667V704c0-23.466667-19.2-42.666667-42.666666-42.666667s-42.666667 19.2-42.666667 42.666667v68.266667l-183.466667-183.466667c-17.066667-17.066667-42.666667-17.066667-59.733333 0-17.066667 17.066667-17.066667 42.666667 0 59.733333l183.466667 183.466667H704c-23.466667 0-42.666667 19.2-42.666667 42.666667s19.2 42.666667 42.666667 42.666666h179.2M362.666667 149.333333c0-23.466667-19.2-42.666667-42.666667-42.666666H140.8c-2.133333 0-2.133333 0-4.266667 2.133333-2.133333 0-2.133333 0-4.266666 2.133333-2.133333 0-2.133333 2.133333-4.266667 2.133334h-2.133333l-6.4 6.4-6.4 6.4c0 2.133333-2.133333 2.133333-2.133334 4.266666s-2.133333 2.133333-2.133333 4.266667 0 2.133333-2.133333 4.266667V320c0 23.466667 19.2 42.666667 42.666666 42.666667s42.666667-19.2 42.666667-42.666667v-68.266667l183.466667 183.466667c8.533333 8.533333 19.2 12.8 29.866666 12.8s21.333333-4.266667 29.866667-12.8c17.066667-17.066667 17.066667-42.666667 0-59.733333L251.733333 192H320c23.466667 0 42.666667-19.2 42.666667-42.666667" fill="#ffffff" p-id="11581"></path></svg>