<?xml version="1.0" standalone="no"?><!DOCTYPE svg PUBLIC "-//W3C//DTD SVG 1.1//EN" "http://www.w3.org/Graphics/SVG/1.1/DTD/svg11.dtd"><svg t="1770543719743" class="icon" viewBox="0 0 1024 1024" version="1.1" xmlns="http://www.w3.org/2000/svg" p-id="4986" xmlns:xlink="http://www.w3.org/1999/xlink" width="200" height="200"><path d="M288.004 575.988h-63.998v447.992h63.998c17.592 0 32.01-14.398 32.01-32.01V607.978c0-17.592-14.397-32.01-32.01-32.01zM735.996 575.988c-17.592 0-32.01 14.398-32.01 32.01V991.99c0 17.592 14.397 32.01 32.01 32.01h63.998V576.009h-63.998z" p-id="4987" fill="#ffffff"></path><path d="M1023.98 511.99C1023.98 229.228 794.75 0 511.99 0S0 229.228 0 511.99c0 61.418 10.834 120.297 30.658 174.834C11.182 720.021 0 758.687 0 799.974c0 112.842 83.454 206.188 191.996 221.712V578.282a222.832 222.832 0 0 0-87.755 32.378 418.01 418.01 0 0 1-8.253-82.676c0-229.74 186.241-416.002 416.002-416.002s416.002 186.242 416.002 416.002c0 28.324-2.827 55.971-8.213 82.697-26.09-16.548-55.847-27.852-87.775-32.42v443.425C940.546 1006.162 1024 912.816 1024 799.974c0-41.267-11.182-79.932-30.637-113.13C1013.187 632.288 1024 573.389 1024 511.99z" p-id="4988" fill="#ffffff"></path></svg>