<?xml version="1.0" standalone="no"?><!DOCTYPE svg PUBLIC "-//W3C//DTD SVG 1.1//EN" "http://www.w3.org/Graphics/SVG/1.1/DTD/svg11.dtd"><svg t="1769964844644" class="icon" viewBox="0 0 1024 1024" version="1.1" xmlns="http://www.w3.org/2000/svg" p-id="5358" xmlns:xlink="http://www.w3.org/1999/xlink" width="200" height="200"><path d="M384 853.333333c23.466667 0 42.666667-19.2 42.666667-42.666666v-170.666667-8.533333-4.266667c0-2.133333 0-2.133333-2.133334-4.266667 0-2.133333-2.133333-2.133333-2.133333-4.266666s-2.133333-2.133333-2.133333-4.266667c-2.133333-2.133333-4.266667-4.266667-4.266667-6.4-2.133333-2.133333-4.266667-4.266667-6.4-4.266667 0 0-2.133333-2.133333-4.266667-2.133333s-2.133333-2.133333-4.266666-2.133333-2.133333 0-4.266667-2.133334H213.333333c-23.466667 0-42.666667 19.2-42.666666 42.666667s19.2 42.666667 42.666666 42.666667h68.266667l-183.466667 183.466666c-17.066667 17.066667-17.066667 42.666667 0 59.733334 8.533333 8.533333 19.2 12.8 29.866667 12.8s21.333333-4.266667 29.866667-12.8l183.466666-183.466667V810.666667c0 23.466667 19.2 42.666667 42.666667 42.666666M925.866667 98.133333c-17.066667-17.066667-42.666667-17.066667-59.733334 0L682.666667 281.6V213.333333c0-23.466667-19.2-42.666667-42.666667-42.666666s-42.666667 19.2-42.666667 42.666666v183.466667c0 2.133333 0 2.133333 2.133334 4.266667 0 2.133333 2.133333 2.133333 2.133333 4.266666s2.133333 2.133333 2.133333 4.266667c2.133333 2.133333 4.266667 4.266667 4.266667 6.4 2.133333 2.133333 4.266667 4.266667 6.4 4.266667 0 0 2.133333 2.133333 4.266667 2.133333s2.133333 2.133333 4.266666 2.133333 2.133333 0 4.266667 2.133334c2.133333 0 2.133333 0 4.266667 2.133333H810.666667c23.466667 0 42.666667-19.2 42.666666-42.666667s-19.2-42.666667-42.666666-42.666666h-68.266667l183.466667-183.466667c17.066667-19.2 17.066667-44.8 0-61.866667M426.666667 213.333333c0-23.466667-19.2-42.666667-42.666667-42.666666s-42.666667 19.2-42.666667 42.666666v68.266667L157.866667 98.133333c-17.066667-17.066667-42.666667-17.066667-59.733334 0s-17.066667 42.666667 0 59.733334l183.466667 183.466666H213.333333c-23.466667 0-42.666667 19.2-42.666666 42.666667s19.2 42.666667 42.666666 42.666667h179.2c2.133333 0 2.133333 0 4.266667-2.133334 2.133333 0 2.133333 0 4.266667-2.133333 2.133333 0 2.133333-2.133333 4.266666-2.133333s2.133333-2.133333 4.266667-2.133334c2.133333-2.133333 4.266667-4.266667 6.4-4.266666 2.133333-2.133333 4.266667-4.266667 4.266667-6.4 0-2.133333 2.133333-2.133333 2.133333-4.266667s2.133333-2.133333 2.133333-4.266667 0-2.133333 2.133334-4.266666v-4.266667V213.333333zM853.333333 640c0-23.466667-19.2-42.666667-42.666666-42.666667h-183.466667c-2.133333 0-2.133333 0-4.266667 2.133334-2.133333 0-2.133333 2.133333-4.266666 2.133333s-2.133333 2.133333-4.266667 2.133333c-2.133333 2.133333-4.266667 4.266667-6.4 4.266667-2.133333 2.133333-4.266667 4.266667-4.266667 6.4 0 2.133333-2.133333 2.133333-2.133333 4.266667s-2.133333 2.133333-2.133333 4.266666 0 2.133333-2.133334 4.266667V810.666667c0 23.466667 19.2 42.666667 42.666667 42.666666s42.666667-19.2 42.666667-42.666666v-68.266667l183.466666 183.466667c8.533333 8.533333 19.2 12.8 29.866667 12.8s21.333333-4.266667 29.866667-12.8c17.066667-17.066667 17.066667-42.666667 0-59.733334L742.4 682.666667H810.666667c23.466667 0 42.666667-19.2 42.666666-42.666667" fill="#ffffff" p-id="5359"></path></svg>